<?xml version="1.0" encoding="UTF-8"?>
<svg id="_레이어_2" data-name="레이어 2" xmlns="http://www.w3.org/2000/svg" viewBox="0 0 63.78 90.96">
  <defs>
    <style>
      .cls-1 {
        fill: none;
      }

      .cls-2 {
        fill: #fff;
      }
    </style>
  </defs>
  <g id="_레이어_1-2" data-name="레이어 1">
    <g>
      <path class="cls-1" d="M59.85,42.08c-.86-.43-1.66-.5-2.38-.2-.67.28-1.31.96-1.76,1.85l-2.26,4.51c-.26.52-.89.73-1.41.47-.52-.26-.73-.89-.47-1.41l3.61-7.2c.39-.79.47-1.68.21-2.51-.26-.81-.82-1.47-1.57-1.85-1.57-.79-3.5-.11-4.31,1.51l-3.61,7.2c-.26.52-.89.73-1.41.47-.52-.26-.73-.89-.47-1.41l4.82-9.62c.81-1.62.2-3.58-1.37-4.36-1.52-.76-3.39-.15-4.24,1.37l-4.89,9.76c-.26.52-.89.73-1.41.47-.52-.26-.73-.89-.47-1.41l4.82-9.62c.03-.06.06-.13.1-.19l6.78-13.52c.73-1.58.11-3.45-1.43-4.22-.75-.38-1.62-.43-2.43-.15-.82.29-1.49.88-1.88,1.66l-17.93,35.24c-.16.32-.48.53-.84.57-.35.04-.71-.12-.93-.4l-14.48-18.72c-1.06-1.08-1.97-1.4-2.7-1.4-.83,0-1.41.41-1.69.61-2.42,1.7-1.92,3.57-1.07,4.84l8.36,12.15s.06.09.08.14c.76,1.6,1.21,4,1.68,6.55.56,2.97,1.13,6.05,2.19,7.88.04.07.07.14.09.22,1.62,5.24-.15,10.05-1.21,12.92-.11.29-.2.55-.29.79-.01.04-.03.08-.05.12-.37.73-.34,1.58.06,2.35.86,1.68,3.23,4.96,9.48,8.1,5.72,2.87,9.76,3.33,12.15,3.21,1.09-.05,1.99-.67,2.34-1.61.6-1.64,1.31-3.18,2.1-4.59,2.17-3.88,4.27-6.51,7.64-10.29,1.31-1.47,2.39-3.03,3.19-4.64l10.67-21.27c.89-1.77.32-3.48-1.44-4.36Z"/>
      <path class="cls-2" d="M60.79,40.21c-1.1-.55-2.21-.73-3.26-.52.18-.9.14-1.83-.14-2.73-.44-1.36-1.37-2.46-2.63-3.09-1.15-.58-2.41-.68-3.57-.4.47-2.31-.61-4.73-2.77-5.81-1.07-.53-2.23-.67-3.33-.45l4.96-9.9c1.22-2.65.18-5.72-2.38-7.01-1.26-.63-2.69-.72-4.06-.26-1.34.47-2.43,1.43-3.07,2.7l-17.18,33.76-13.51-17.46s-.05-.06-.07-.09c-2.24-2.31-4.84-2.71-7.15-1.09-3.39,2.38-3.05,5.55-1.6,7.72l8.32,12.09c.62,1.36,1.04,3.59,1.48,5.96.58,3.1,1.18,6.3,2.38,8.44,1.36,4.53-.25,8.87-1.21,11.47-.1.27-.19.53-.28.76-.64,1.31-.6,2.83.1,4.19,1.19,2.33,3.96,5.78,10.4,9.01,5.56,2.79,9.73,3.45,12.42,3.45.27,0,.53,0,.78-.02,1.91-.08,3.56-1.25,4.22-3.02.55-1.5,1.21-2.93,1.95-4.25,2.07-3.71,4.11-6.25,7.37-9.92,1.43-1.61,2.61-3.32,3.5-5.09l10.67-21.27c1.39-2.77.39-5.79-2.37-7.18ZM62.22,46.92l-10.67,21.27c-.96,1.92-2.17,3.55-3.35,4.87-3.28,3.68-5.38,6.29-7.51,10.1-.79,1.41-1.46,2.89-2.02,4.4v.04c-.5,1.32-1.76,2.23-3.28,2.29-2.48.12-6.73-.34-12.68-3.32-6.29-3.16-8.88-6.49-9.94-8.55-.56-1.07-.58-2.28-.08-3.28v-.02c.9-2.52,3.18-7.62,1.5-13.05-2.1-3.61-2.36-11.23-3.92-14.5L1.91,35c-1.24-1.86-1.46-4.31,1.34-6.27,2.59-1.82,4.78-.09,5.79.96l14.52,18.77L41.49,13.22c.54-1.07,1.45-1.82,2.48-2.19,1.04-.35,2.2-.32,3.24.21,2.04,1.02,2.87,3.52,1.89,5.63l-6.85,13.67c1.08-2.11,3.62-2.98,5.7-1.94,2.09,1.05,2.91,3.63,1.83,5.77l-2.75,5.49-2.06,4.13,3.61-7.2c1.07-2.14,3.63-3.02,5.72-1.98,1.04.52,1.77,1.43,2.1,2.47.33,1.05.27,2.23-.27,3.29l-3.61,7.2,2.26-4.51c.54-1.07,1.34-1.95,2.29-2.35.94-.39,2.05-.37,3.25.23,2.4,1.2,2.97,3.63,1.9,5.77Z"/>
      <path class="cls-2" d="M60.32,41.15c-1.2-.6-2.31-.62-3.25-.23-.95.4-1.76,1.28-2.29,2.35l-2.26,4.51,3.61-7.2c.54-1.07.6-2.25.27-3.29-.34-1.04-1.06-1.95-2.1-2.47-2.08-1.05-4.65-.16-5.72,1.98l-3.61,7.2,2.06-4.13,2.75-5.49c1.07-2.14.25-4.72-1.83-5.77-2.07-1.04-4.61-.17-5.7,1.94l-4.84,9.65,4.82-9.62s.02-.02.02-.04l6.85-13.67c.97-2.11.15-4.61-1.89-5.63-1.04-.52-2.2-.56-3.24-.21-1.03.36-1.94,1.12-2.48,2.19l-17.93,35.23-14.52-18.77c-1.01-1.05-3.2-2.78-5.79-.96-2.8,1.97-2.58,4.41-1.34,6.27l8.37,12.16c1.56,3.28,1.82,10.9,3.92,14.5,1.68,5.43-.6,10.53-1.49,13.05v.02c-.51,1.01-.49,2.21.07,3.28,1.05,2.06,3.64,5.39,9.94,8.55,5.94,2.98,10.19,3.45,12.68,3.32,1.53-.07,2.78-.98,3.27-2.29v-.04c.57-1.52,1.24-3,2.03-4.4,2.13-3.81,4.23-6.42,7.51-10.1,1.18-1.32,2.38-2.95,3.35-4.87l10.67-21.27c1.07-2.14.5-4.57-1.9-5.77ZM61.28,46.45l-10.67,21.27c-.81,1.61-1.88,3.17-3.19,4.64-3.36,3.78-5.47,6.41-7.64,10.29-.8,1.42-1.5,2.95-2.1,4.59-.35.95-1.25,1.56-2.34,1.61-2.39.12-6.43-.34-12.15-3.21-6.24-3.13-8.61-6.41-9.48-8.1-.4-.77-.43-1.63-.06-2.35.02-.04.04-.08.05-.12.08-.24.18-.51.29-.79,1.06-2.87,2.83-7.67,1.21-12.92-.02-.08-.06-.15-.09-.22-1.06-1.83-1.64-4.91-2.19-7.88-.48-2.55-.92-4.95-1.68-6.55-.02-.05-.05-.1-.08-.14l-8.36-12.15c-.85-1.27-1.35-3.14,1.07-4.84.28-.2.87-.61,1.69-.61.73,0,1.65.32,2.7,1.4l14.48,18.72c.22.28.57.44.93.4.36-.03.67-.25.84-.57L42.42,13.69c.39-.79,1.07-1.38,1.88-1.66.82-.28,1.68-.23,2.43.15,1.54.77,2.16,2.64,1.43,4.22l-6.78,13.52c-.03.06-.07.12-.1.19l-4.82,9.62c-.26.52-.05,1.15.47,1.41.52.26,1.15.05,1.41-.47l4.89-9.76c.85-1.52,2.72-2.13,4.24-1.37,1.57.79,2.18,2.74,1.37,4.36l-4.82,9.62c-.26.52-.05,1.15.47,1.41.52.26,1.15.05,1.41-.47l3.61-7.2c.81-1.62,2.75-2.3,4.31-1.51.75.38,1.31,1.04,1.57,1.85.26.83.19,1.73-.21,2.51l-3.61,7.2c-.26.52-.05,1.15.47,1.41.52.26,1.15.05,1.41-.47l2.26-4.51c.45-.89,1.09-1.57,1.76-1.85.72-.3,1.52-.23,2.38.2,1.76.88,2.32,2.6,1.44,4.36Z"/>
      <path class="cls-2" d="M37.41,40.19l4.84-9.65s-.02.02-.02.04l-4.82,9.62Z"/>
      <polygon class="cls-1" points="33.43 9.41 27.61 3.09 25.05 11.29 33.43 9.41"/>
      <path class="cls-2" d="M25.56,6.15l1.59-5.1,4.14,4.49,4.14,4.49-5.96,1.34-5.96,1.34,1.45-4.65c-.08,0-.16,0-.24-.02-.26-.08-.53-.14-.79-.2l-1.43,4.57c-.11.36-.02.75.23,1.02.2.22.48.34.77.34.08,0,.15,0,.23-.03l11.92-2.67c.37-.08.66-.35.77-.71.11-.36.02-.75-.23-1.02L27.92.34c-.25-.28-.63-.39-1-.31-.37.08-.66.35-.77.71l-1.59,5.09c.26.07.53.12.79.2.08.02.14.07.21.12Z"/>
      <path class="cls-2" d="M29.47,11.37l5.96-1.34-4.14-4.49-4.14-4.49-1.59,5.1c.41.24.62.72.48,1.2-.15.47-.6.75-1.07.71l-1.45,4.65,5.96-1.34ZM27.61,3.09l5.82,6.32-8.38,1.88,2.56-8.2Z"/>
      <path class="cls-2" d="M7.24,17.34c.1.03.21.05.31.05.45,0,.86-.29,1-.73l.04-.14c1.02-3.29,3.26-5.98,6.31-7.58,2.8-1.47,5.98-1.85,9.03-1.1l.63-2c-3.59-.91-7.33-.49-10.63,1.25-3.54,1.86-6.15,4.99-7.33,8.81l-.04.13c-.17.55.13,1.14.68,1.31Z"/>
      <path class="cls-2" d="M24.73,8.03c.08.02.16.02.24.02l.37-1.18.23-.73c-.07-.04-.13-.09-.21-.12-.26-.08-.52-.14-.79-.2l-.63,2c.26.06.53.12.79.2Z"/>
      <path class="cls-2" d="M26.04,7.34c.15-.47-.07-.95-.48-1.2l-.23.73-.37,1.18c.47.03.93-.24,1.07-.71Z"/>
    </g>
  </g>
</svg>