<?xml version="1.0" encoding="UTF-8"?>
<svg id="_레이어_2" data-name="레이어 2" xmlns="http://www.w3.org/2000/svg" viewBox="0 0 56.69 118.79">
  <defs>
    <style>
      .cls-1 {
        fill: #fff;
      }
    </style>
  </defs>
  <g id="_레이어_1-2" data-name="레이어 1">
    <path class="cls-1" d="M51.11,57.98c-1.29,0-2.41.35-3.3,1.02-.25-.91-.73-1.74-1.42-2.44-1.05-1.04-2.43-1.61-3.9-1.61-1.34,0-2.57.48-3.53,1.28-.65-2.33-2.78-4.04-5.32-4.04-1.25,0-2.4.42-3.33,1.12v-3.57c4.51-2.09,7.66-6.64,7.68-11.93.01-3.52-1.35-6.84-3.83-9.34-2.23-2.25-5.13-3.58-8.26-3.84v-11.39h5.29c.39,0,.75-.21.95-.55.2-.34.2-.76,0-1.1L25.77.55c-.05-.08-.11-.16-.17-.22,0,0,0,0,0,0-.09-.09-.19-.15-.31-.21-.03-.01-.06-.03-.09-.04-.12-.04-.24-.08-.38-.08s-.26.03-.38.08c-.03.01-.06.02-.09.04-.11.05-.22.12-.31.21,0,0,0,0,0,0-.07.07-.12.14-.17.22l-6.39,11.07c-.2.34-.2.76,0,1.1.2.34.56.55.95.55h5.29v11.39c-3.09.25-5.97,1.57-8.2,3.78-2.5,2.48-3.88,5.79-3.89,9.31-.02,5.31,3.14,9.9,7.67,12v25.39l-9.41-8.98c-2.54-2.14-5.28-2.3-7.53-.45-3.33,2.75-2.67,5.96-.94,8.05l9.81,11.51c.77,1.32,1.42,3.52,2.11,5.85.92,3.12,1.87,6.34,3.37,8.4,2.68,3.67,2.83,4.21,3.47,6.5.13.45.27.96.45,1.57.3,1,.45,1.96.6,3.89,0,1.52.76,2.92,2.07,3.85,2.2,1.58,6.41,3.46,13.94,3.46s11.54-1.58,13.94-2.9c1.76-.96,2.76-2.79,2.54-4.72-.19-1.62-.24-3.22-.17-4.76.2-4.32.91-7.57,2.24-12.4.59-2.12.89-4.23.89-6.26v-24.27c0-3.18-2.35-5.49-5.58-5.49ZM29.31,11.07h-8.98l3.4-5.88,1.1-1.9,1.1,1.9,3.4,5.88ZM54.5,87.74c0,1.83-.27,3.74-.81,5.68-1.37,4.99-2.11,8.36-2.32,12.88-.08,1.66-.02,3.38.19,5.16.11,1.01-.43,1.96-1.42,2.5-2.18,1.2-6.18,2.63-12.88,2.63-7.32,0-11.08-1.91-12.67-3.05-.73-.52-1.15-1.27-1.15-2.09,0-.03,0-.06,0-.09-.17-2.17-.34-3.24-.69-4.41-.18-.59-.32-1.09-.44-1.53-.73-2.59-1.01-3.35-3.81-7.2-1.28-1.76-2.18-4.8-3.04-7.73-.74-2.51-1.44-4.89-2.38-6.44-.03-.05-.06-.1-.1-.14l-9.86-11.57c-.99-1.19-1.68-3.02.66-4.95.3-.25.97-.8,1.97-.8.73,0,1.63.29,2.7,1.19l11.21,10.7c.32.3.78.39,1.19.21.4-.17.66-.57.66-1.01v-35.47c0-.88.35-1.72.97-2.35.36-.36.79-.61,1.26-.78.35-.12.72-.2,1.1-.2s.75.08,1.1.2c1.26.44,2.17,1.59,2.22,2.97v26.61c0,.61.5,1.1,1.1,1.1.29,0,.57-.12.77-.32.21-.21.32-.48.32-.78v-10.97c0-1.83,1.48-3.32,3.32-3.32s3.32,1.49,3.32,3.33v10.97c0,.61.5,1.1,1.1,1.1h0c.61,0,1.1-.49,1.1-1.1v-8.21c0-1.83,1.49-3.32,3.32-3.32.88,0,1.72.35,2.35.97.63.63.98,1.47.98,2.36v8.21c0,.61.49,1.1,1.1,1.1s1.1-.49,1.1-1.1v-5.22c0-.99.27-1.82.77-2.39.53-.6,1.31-.91,2.33-.91,2.06,0,3.39,1.29,3.39,3.29v24.27ZM23.72,26.84c.36-.04.73-.05,1.09-.05h.03c.36,0,.71.02,1.06.05,2.53.25,4.88,1.36,6.7,3.19,2.07,2.08,3.21,4.85,3.2,7.78-.01,4.04-2.22,7.57-5.49,9.47v-5.24c-.09-2.61-1.95-4.73-4.41-5.22-.35-.07-.72-.11-1.1-.11s-.74.04-1.1.11c-1.05.21-2.02.73-2.81,1.51-1.04,1.05-1.61,2.43-1.61,3.9v5.05c-3.28-1.91-5.49-5.47-5.48-9.53,0-2.94,1.16-5.69,3.24-7.76,1.81-1.8,4.14-2.9,6.66-3.14Z"/>
  </g>
</svg>